<svg width="24" height="24" viewBox="0 0 24 24" fill="none" xmlns="http://www.w3.org/2000/svg">
<path d="M0.0987655 18.8492C2.13992 18.6901 3.7037 18.0695 4.79012 16.9874C5.87654 15.8735 6.4856 14.5687 6.61728 13.0729C6.28807 13.1683 5.97531 13.2479 5.67901 13.3116C5.38272 13.3434 5.08642 13.3593 4.79012 13.3593C3.30864 13.3593 2.13992 12.866 1.28395 11.8794C0.427984 10.8928 0 9.69933 0 8.29899C0 6.73953 0.477366 5.4665 1.4321 4.4799C2.38683 3.4933 3.68724 3 5.33333 3C6.97942 3 8.31276 3.55695 9.33333 4.67086C10.3868 5.78476 10.9136 7.4397 10.9136 9.63568C10.9136 12.5 10.4527 14.8392 9.53086 16.6533C8.64198 18.4355 7.37449 19.7563 5.72839 20.6156C4.11523 21.4749 2.23868 21.9363 0.0987655 22V18.8492ZM13.1852 18.8492C15.2263 18.6901 16.7737 18.0695 17.8272 16.9874C18.9136 15.8735 19.5226 14.5687 19.6543 13.0729C19.358 13.1683 19.0453 13.2479 18.7161 13.3116C18.4198 13.3434 18.1235 13.3593 17.8272 13.3593C16.3457 13.3593 15.177 12.866 14.321 11.8794C13.465 10.8928 13.037 9.69933 13.037 8.29899C13.037 6.73953 13.5144 5.4665 14.4691 4.4799C15.4239 3.4933 16.7407 3 18.4198 3C20.0329 3 21.3663 3.55695 22.4198 4.67086C23.4733 5.78476 24 7.4397 24 9.63568C24 12.5 23.5391 14.8392 22.6173 16.6533C21.6955 18.4355 20.4115 19.7563 18.7654 20.6156C17.1523 21.4749 15.2922 21.9363 13.1852 22V18.8492Z" fill="black"/>
</svg>
