<svg width="25" height="24" viewBox="0 0 25 24" fill="none" xmlns="http://www.w3.org/2000/svg">
<path d="M23.9078 5.31658C21.8666 5.48409 20.3028 6.1541 19.2164 7.32663C18.1629 8.46566 17.5539 9.8392 17.3892 11.4472C17.6855 11.3132 17.9818 11.2295 18.2781 11.196C18.6073 11.129 18.9201 11.0955 19.2164 11.0955C20.6979 11.0955 21.8666 11.6147 22.7226 12.6533C23.6115 13.6918 24.0559 14.9481 24.0559 16.4221C24.0559 18.0637 23.5785 19.4037 22.6238 20.4422C21.6691 21.4807 20.3522 22 18.6732 22C17.06 22 15.7267 21.4137 14.6732 20.2412C13.6197 19.0687 13.0929 17.3266 13.0929 15.0151C13.0929 11.9665 13.5539 9.50419 14.4757 7.62814C15.3975 5.75209 16.665 4.36181 18.2781 3.45729C19.9242 2.55276 21.8008 2.067 23.9078 2V5.31658ZM10.8213 5.31658C8.78019 5.48409 7.23286 6.1541 6.17936 7.32663C5.12587 8.46566 4.51681 9.8392 4.3522 11.4472C4.6485 11.3132 4.9448 11.2295 5.24109 11.196C5.57031 11.129 5.88307 11.0955 6.17936 11.0955C7.66085 11.0955 8.82957 11.6147 9.68554 12.6533C10.5415 13.6918 10.9695 14.9481 10.9695 16.4221C10.9695 18.0637 10.4921 19.4037 9.53739 20.4422C8.58266 21.4807 7.26579 22 5.58677 22C4.00653 22 2.68965 21.4137 1.63616 20.2412C0.582657 19.0687 0.0559082 17.3266 0.0559082 15.0151C0.0559082 11.9665 0.500352 9.50419 1.38924 7.62814C2.31105 5.75209 3.595 4.36181 5.24109 3.45729C6.88718 2.55276 8.74727 2.067 10.8213 2V5.31658Z" fill="black"/>
</svg>
